<?xml version="1.0" encoding="UTF-8"?>
<svg width="600" height="400" viewBox="0 0 600 400" xmlns="http://www.w3.org/2000/svg">
    <!-- Fundo -->
    <rect width="600" height="400" fill="#f8f9fa" rx="20" ry="20"/>
    
    <!-- Veterinário -->
    <g transform="translate(100, 150)">
        <!-- Cabeça -->
        <circle cx="0" cy="0" r="30" fill="#4a90e2"/>
        <!-- Corpo -->
        <rect x="-20" y="30" width="40" height="80" fill="#2c3e50"/>
        <!-- Jaleco -->
        <path d="M-30 30 L30 30 L40 80 L-40 80 Z" fill="white"/>
        <!-- Estetoscópio -->
        <path d="M-20 50 C-20 30, 20 30, 20 50" stroke="#4a90e2" stroke-width="4" fill="none"/>
        <circle cx="0" cy="50" r="8" fill="#4a90e2"/>
    </g>
    
    <!-- Cachorro -->
    <g transform="translate(400, 200)">
        <!-- Corpo -->
        <ellipse cx="0" cy="0" rx="60" ry="40" fill="#e67e22"/>
        <!-- Cabeça -->
        <circle cx="50" cy="-20" r="30" fill="#e67e22"/>
        <!-- Orelhas -->
        <path d="M30 -50 L20 -80 L40 -70 Z" fill="#e67e22"/>
        <path d="M70 -50 L80 -80 L60 -70 Z" fill="#e67e22"/>
        <!-- Focinho -->
        <ellipse cx="70" cy="-15" rx="15" ry="10" fill="#d35400"/>
        <!-- Olhos -->
        <circle cx="40" cy="-30" r="5" fill="white"/>
        <circle cx="60" cy="-30" r="5" fill="white"/>
        <!-- Patas -->
        <ellipse cx="-30" cy="30" rx="15" ry="10" fill="#d35400"/>
        <ellipse cx="30" cy="30" rx="15" ry="10" fill="#d35400"/>
    </g>
    
    <!-- Mesa de Exame -->
    <rect x="200" y="250" width="200" height="20" fill="#95a5a6" rx="5" ry="5"/>
    <rect x="220" y="270" width="160" height="10" fill="#7f8c8d"/>
    
    <!-- Elementos Decorativos -->
    <circle cx="50" cy="50" r="20" fill="#4a90e2" opacity="0.1"/>
    <circle cx="550" cy="350" r="30" fill="#2c3e50" opacity="0.1"/>
    <circle cx="500" cy="50" r="25" fill="#e67e22" opacity="0.1"/>
</svg> 